<svg viewBox="0 0 720 652" role="img" aria-label="Voyager AI — Evaluation Flow — 13 metrics · Groq judge · Markdown logs (workflow diagram)">
        <!-- Definitions -->
        <defs>
          <marker id="arrowhead" markerWidth="10" markerHeight="7" refX="9" refY="3.5" orient="auto">
            <polygon points="0 0, 10 3.5, 0 7" class="m-default" />
          </marker>
          <marker id="arrowhead-emphasis" markerWidth="10" markerHeight="7" refX="9" refY="3.5" orient="auto">
            <polygon points="0 0, 10 3.5, 0 7" class="m-emphasis" />
          </marker>
          <marker id="arrowhead-security" markerWidth="10" markerHeight="7" refX="9" refY="3.5" orient="auto">
            <polygon points="0 0, 10 3.5, 0 7" class="m-security" />
          </marker>
          <marker id="arrowhead-dashed" markerWidth="10" markerHeight="7" refX="9" refY="3.5" orient="auto">
            <polygon points="0 0, 10 3.5, 0 7" class="m-dashed" />
          </marker>
          <pattern id="grid" width="40" height="40" patternUnits="userSpaceOnUse">
            <path d="M 40 0 L 0 0 0 40" class="c-grid" stroke-width="0.5"/>
          </pattern>
        </defs>

        <!-- Background Grid -->
        <rect width="100%" height="100%" fill="url(#grid)" />

        <!-- Swimlanes -->
        <rect x="40" y="52" width="640" height="104" rx="10" class="c-lane" stroke-width="1"/>
        <text x="54" y="74" class="t-dim" font-size="10" font-weight="600">01 / Developer</text>

        <rect x="40" y="176" width="640" height="104" rx="10" class="c-lane" stroke-width="1"/>
        <text x="54" y="198" class="t-dim" font-size="10" font-weight="600">02 / Test suite</text>

        <rect x="40" y="300" width="640" height="104" rx="10" class="c-lane" stroke-width="1"/>
        <text x="54" y="322" class="t-dim" font-size="10" font-weight="600">03 / DeepEval</text>

        <rect x="40" y="424" width="640" height="104" rx="10" class="c-lane" stroke-width="1"/>
        <text x="54" y="446" class="t-dim" font-size="10" font-weight="600">04 / Results</text>

        <!-- Phase headers -->


        <!-- Workflow groups -->


        <!-- Edge paths -->
        <path d="M 134 119 L 134 166 L 235 166 L 235 243" class="a-emphasis" stroke-width="1.8" marker-end="url(#arrowhead-emphasis)"/>
        <path d="M 300 269 L 300 290 L 430 290 L 430 341" class="a-security" stroke-width="1.4" marker-end="url(#arrowhead-security)"/>
        <path d="M 485 367 L 485 414 L 445 414 L 445 491" class="a-emphasis" stroke-width="1.8" marker-end="url(#arrowhead-emphasis)"/>

        <!-- Nodes -->
        <rect x="42" y="93" width="92" height="52" rx="6" class="c-mask"/>
        <rect x="42" y="93" width="92" height="52" rx="6" class="c-external" stroke-width="1.5"/>
        <text x="88" y="114" class="t-primary" font-size="11" font-weight="600" text-anchor="middle">CLI</text>
        <text x="88" y="131" class="t-muted" font-size="8" text-anchor="middle">pytest</text>

        <rect x="235" y="217" width="130" height="52" rx="6" class="c-mask"/>
        <rect x="235" y="217" width="130" height="52" rx="6" class="c-backend" stroke-width="1.5"/>
        <text x="300" y="238" class="t-primary" font-size="11" font-weight="600" text-anchor="middle">Eval suite</text>
        <text x="300" y="255" class="t-muted" font-size="8" text-anchor="middle">CI / nightly / memory</text>

        <rect x="375" y="341" width="110" height="52" rx="6" class="c-mask"/>
        <rect x="375" y="341" width="110" height="52" rx="6" class="c-security" stroke-width="1.5"/>
        <text x="430" y="362" class="t-primary" font-size="11" font-weight="600" text-anchor="middle">GroqJudge</text>
        <text x="430" y="379" class="t-muted" font-size="8" text-anchor="middle">13 metrics</text>

        <rect x="445" y="465" width="110" height="52" rx="6" class="c-mask"/>
        <rect x="445" y="465" width="110" height="52" rx="6" class="c-database" stroke-width="1.5"/>
        <text x="500" y="486" class="t-primary" font-size="11" font-weight="600" text-anchor="middle">results MD</text>
        <text x="500" y="503" class="t-muted" font-size="8" text-anchor="middle">append log</text>

        <!-- Edge labels -->




        <!-- Legend -->
        <text x="175" y="552" class="t-primary" font-size="10" font-weight="600">Legend</text>
        <rect x="175" y="564" width="14" height="9" rx="2" class="c-frontend" stroke-width="1"/>
        <text x="195" y="572" class="t-muted" font-size="7">User UI</text>
        <rect x="260" y="564" width="14" height="9" rx="2" class="c-backend" stroke-width="1"/>
        <text x="280" y="572" class="t-muted" font-size="7">Agent logic</text>
        <rect x="370" y="564" width="14" height="9" rx="2" class="c-security" stroke-width="1"/>
        <text x="390" y="572" class="t-muted" font-size="7">Policy</text>
        <rect x="455" y="564" width="14" height="9" rx="2" class="c-messagebus" stroke-width="1"/>
        <text x="475" y="572" class="t-muted" font-size="7">Tool action</text>
        <rect x="565" y="564" width="14" height="9" rx="2" class="c-database" stroke-width="1"/>
        <text x="585" y="572" class="t-muted" font-size="7">Context / trace</text>
      </svg>